<svg width="96" height="191" viewBox="0 0 96 191" fill="none" xmlns="http://www.w3.org/2000/svg"><path id="about-eclipse" d="M95.5 0C82.9588 0 70.5403 2.47018 58.9537 7.2695C47.3671 12.0688 36.8393 19.1033 27.9713 27.9713C19.1033 36.8393 12.0688 47.3671 7.2695 58.9537C2.47018 70.5403 -5.48195e-07 82.9588 0 95.5C5.48195e-07 108.041 2.47018 120.46 7.26951 132.046C12.0688 143.633 19.1033 154.161 27.9713 163.029C36.8393 171.897 47.3671 178.931 58.9537 183.73C70.5403 188.53 82.9588 191 95.5 191V143.25C89.2294 143.25 83.0202 142.015 77.2269 139.615C71.4336 137.216 66.1697 133.698 61.7357 129.264C57.3017 124.83 53.7844 119.566 51.3848 113.773C48.9851 107.98 47.75 101.771 47.75 95.5C47.75 89.2294 48.9851 83.0202 51.3848 77.2269C53.7844 71.4336 57.3017 66.1696 61.7356 61.7357C66.1696 57.3017 71.4336 53.7844 77.2269 51.3848C83.0202 48.9851 89.2294 47.75 95.5 47.75V0Z" fill="white"/></svg>