<svg width="44" height="35" viewBox="0 0 44 35" fill="none" xmlns="http://www.w3.org/2000/svg"><g id="at-icon"><path id="Vector" d="M29.8964 33.2416C26.8789 34.5607 24.2633 35 20.6922 35C12.3435 35 5 29.1865 5 19.6123C5 9.64662 12.4436 1 23.811 1C32.6629 1 39 6.91122 39 15.118C39 22.25 34.8759 26.7444 29.4441 26.7444C27.0801 26.7444 25.3704 25.5719 25.1188 22.9826H25.0181C23.4593 25.4742 21.196 26.7444 18.5301 26.7444C15.2609 26.7444 12.897 24.3994 12.897 20.3933C12.897 14.4337 17.4236 9.01125 24.6659 9.01125C26.8789 9.01125 29.3932 9.54887 30.6512 10.2326L29.1427 19.2702C28.6401 22.1517 28.9918 23.4713 30.4002 23.5197C32.5629 23.5686 35.2785 20.8815 35.2785 15.2641C35.2785 8.9135 31.0538 3.97925 23.2575 3.97925C15.5629 3.97925 8.82269 9.84159 8.82269 19.1719C8.82269 27.3298 14.2042 31.9708 21.6986 31.9708C24.2639 31.9708 26.9801 31.4337 28.9912 30.4073L29.8964 33.2416ZM25.4201 13.0663C25.0176 12.9685 24.5144 12.8708 23.8608 12.8708C20.5418 12.8708 17.9257 16.0461 17.9257 19.8073C17.9257 21.6635 18.7812 22.836 20.4406 22.836C22.3014 22.836 24.2633 20.5399 24.7156 17.7068L25.4201 13.0663Z" fill="white"/></g></svg>
