<svg width="34" height="34" viewBox="0 0 34 34" fill="none" xmlns="http://www.w3.org/2000/svg"><g id="contact-icon"><g id="Group"><path id="Vector" d="M16.3462 17.68C18.8738 17.68 20.9231 15.1406 20.9231 12.0081C20.9231 8.87548 20.2503 6.79999 16.3462 6.79999C12.4422 6.79999 11.7692 8.87548 11.7692 12.0081C11.7692 15.1406 13.8185 17.68 16.3462 17.68Z" fill="white"/><path id="Vector_2" d="M3.92451 29.3229C3.92329 29.0429 3.92206 29.244 3.92451 29.3229V29.3229Z" fill="white"/><path id="Vector_3" d="M29.7816 29.5415C29.7854 29.4649 29.7829 29.0098 29.7816 29.5415V29.5415Z" fill="white"/><path id="Vector_4" d="M24.8366 25.3007C24.7533 20.1 24.0664 18.6181 18.8106 17.68C18.8106 17.68 18.0707 18.6123 16.3463 18.6123C14.6219 18.6123 13.8819 17.68 13.8819 17.68C8.68343 18.6078 7.95483 20.0678 7.85903 25.1318C7.85118 25.5453 7.84754 25.567 7.84613 25.519C7.84645 25.609 7.84683 25.7753 7.84683 26.0654C7.84683 26.0654 9.09812 28.56 16.3463 28.56C23.5944 28.56 24.8458 26.0654 24.8458 26.0654C24.8458 25.879 24.8459 25.7494 24.8461 25.6613C24.8447 25.6909 24.8419 25.6334 24.8366 25.3007Z" fill="white"/><path id="Ellipse 3" d="M32.6923 17C32.6923 26.3888 25.3739 34 16.3462 34C7.31842 34 0 26.3888 0 17C0 7.61116 7.31842 0 16.3462 0C25.3739 0 32.6923 7.61116 32.6923 17ZM2.41714 17C2.41714 25.0005 8.65337 31.4862 16.3462 31.4862C24.0389 31.4862 30.2752 25.0005 30.2752 17C30.2752 8.9995 24.0389 2.51382 16.3462 2.51382C8.65337 2.51382 2.41714 8.9995 2.41714 17Z" fill="white"/></g></g></svg>