<svg width="66" height="63" viewBox="0 0 66 63" fill="none" xmlns="http://www.w3.org/2000/svg"><path id="git-svg" d="M22.0754 50.7275C22.0754 50.988 21.7694 51.1965 21.3835 51.1965C20.9444 51.2356 20.6383 51.0271 20.6383 50.7275C20.6383 50.467 20.9444 50.2585 21.3302 50.2585C21.7294 50.2194 22.0754 50.4279 22.0754 50.7275ZM17.9371 50.1413C17.844 50.4018 18.1101 50.7014 18.5093 50.7796C18.8552 50.9099 19.2544 50.7796 19.3343 50.5191C19.4141 50.2585 19.1613 49.9589 18.7621 49.8417C18.4161 49.7505 18.0302 49.8807 17.9371 50.1413ZM23.8185 49.9198C23.4327 50.011 23.1665 50.2585 23.2065 50.5582C23.2464 50.8187 23.5923 50.988 23.9915 50.8969C24.3774 50.8057 24.6435 50.5582 24.6036 50.2976C24.5637 50.0501 24.2044 49.8807 23.8185 49.9198ZM32.5742 0C14.1181 0 0 13.7175 0 31.7861C0 46.2332 9.2879 58.5959 22.5544 62.9469C24.2577 63.2465 24.8565 62.2174 24.8565 61.3706C24.8565 60.563 24.8165 56.1077 24.8165 53.372C24.8165 53.372 15.502 55.3261 13.546 49.4899C13.546 49.4899 12.029 45.699 9.84677 44.722C9.84677 44.722 6.7996 42.6768 10.0597 42.7158C10.0597 42.7158 13.373 42.9764 15.196 46.0768C18.1101 51.1053 22.9936 49.6593 24.8964 48.7995C25.2024 46.7152 26.0673 45.2692 27.0254 44.4094C19.5871 43.6017 12.0823 42.5465 12.0823 30.0144C12.0823 26.432 13.0935 24.6342 15.2226 22.3415C14.8766 21.4947 13.7456 18.0034 15.5685 13.4961C18.3496 12.6493 24.75 17.0134 24.75 17.0134C27.4113 16.2839 30.2722 15.9061 33.1065 15.9061C35.9407 15.9061 38.8016 16.2839 41.4629 17.0134C41.4629 17.0134 47.8633 12.6363 50.6444 13.4961C52.4673 18.0165 51.3363 21.4947 50.9903 22.3415C53.1194 24.6473 54.4234 26.445 54.4234 30.0144C54.4234 42.5856 46.5859 43.5887 39.1476 44.4094C40.3718 45.4385 41.4097 47.3926 41.4097 50.4539C41.4097 54.8441 41.3698 60.2764 41.3698 61.3446C41.3698 62.1913 41.9819 63.2205 43.6718 62.9209C56.9782 58.5959 66 46.2332 66 31.7861C66 13.7175 51.0302 0 32.5742 0ZM12.9339 44.9304C12.7609 45.0607 12.8008 45.3603 13.027 45.6079C13.2399 45.8163 13.546 45.9075 13.719 45.7381C13.8919 45.6079 13.852 45.3082 13.6258 45.0607C13.4129 44.8523 13.1069 44.7611 12.9339 44.9304ZM11.4968 43.8753C11.4036 44.0446 11.5367 44.253 11.8028 44.3833C12.0157 44.5136 12.2819 44.4745 12.375 44.2921C12.4681 44.1228 12.3351 43.9143 12.069 43.7841C11.8028 43.7059 11.5899 43.745 11.4968 43.8753ZM15.8081 48.5129C15.5952 48.6823 15.675 49.0731 15.981 49.3206C16.2871 49.6202 16.673 49.6593 16.846 49.4509C17.019 49.2815 16.9391 48.8907 16.673 48.6432C16.3802 48.3435 15.981 48.3045 15.8081 48.5129ZM14.2911 46.5979C14.0782 46.7282 14.0782 47.0669 14.2911 47.3665C14.504 47.6661 14.8633 47.7964 15.0363 47.6661C15.2492 47.4968 15.2492 47.1581 15.0363 46.8585C14.85 46.5588 14.504 46.4286 14.2911 46.5979Z" fill="black"/></svg>
