<svg width="48" height="48" viewBox="0 0 48 48" fill="none" xmlns="http://www.w3.org/2000/svg"><g id="gmail-icon "><path id="Vector" d="M45 16.2002L40 18.9502L35 23.7002V40.0002H42C43.657 40.0002 45 38.6572 45 37.0002V16.2002Z" fill="#4CAF50"/><path id="Vector_2" d="M3 16.2002L6.614 17.9102L13 23.7002V40.0002H6C4.343 40.0002 3 38.6572 3 37.0002V16.2002Z" fill="#1E88E5"/><path id="Vector_3" d="M35 11.2002L24 19.4502L13 11.2002L12 17.0002L13 23.7002L24 31.9502L35 23.7002L36 17.0002L35 11.2002Z" fill="#E53935"/><path id="Vector_4" d="M3 12.298V16.2L13 23.7V11.2L9.876 8.859C9.132 8.301 8.228 8 7.298 8C4.924 8 3 9.924 3 12.298Z" fill="#C62828"/><path id="Vector_5" d="M45 12.298V16.2L35 23.7V11.2L38.124 8.859C38.868 8.301 39.772 8 40.702 8C43.076 8 45 9.924 45 12.298Z" fill="#FBC02D"/></g></svg>