<svg width="63" height="63" viewBox="0 0 63 63" fill="none" xmlns="http://www.w3.org/2000/svg"><path d="M31.507 15.3476C22.5683 15.3476 15.3582 22.5592 15.3582 31.5C15.3582 40.4408 22.5683 47.6524 31.507 47.6524C40.4458 47.6524 47.6558 40.4408 47.6558 31.5C47.6558 22.5592 40.4458 15.3476 31.507 15.3476ZM31.507 42.0012C25.7306 42.0012 21.0082 37.2918 21.0082 31.5C21.0082 25.7082 25.7165 20.9988 31.507 20.9988C37.2975 20.9988 42.0059 25.7082 42.0059 31.5C42.0059 37.2918 37.2835 42.0012 31.507 42.0012V42.0012ZM52.083 14.6869C52.083 16.7815 50.3965 18.4544 48.3164 18.4544C46.2223 18.4544 44.5498 16.7674 44.5498 14.6869C44.5498 12.6063 46.2363 10.9194 48.3164 10.9194C50.3965 10.9194 52.083 12.6063 52.083 14.6869ZM62.7786 18.5106C62.5397 13.4639 61.3872 8.99347 57.6909 5.31033C54.0085 1.62719 49.5392 0.47445 44.4935 0.22141C39.2933 -0.0738034 23.7067 -0.0738034 18.5065 0.22141C13.4749 0.460393 9.00552 1.61313 5.30915 5.29627C1.61277 8.97942 0.474345 13.4498 0.221361 18.4965C-0.0737869 23.6979 -0.0737869 39.288 0.221361 44.4894C0.46029 49.5361 1.61277 54.0065 5.30915 57.6897C9.00552 61.3728 13.4608 62.5255 18.5065 62.7786C23.7067 63.0738 39.2933 63.0738 44.4935 62.7786C49.5392 62.5396 54.0085 61.3869 57.6909 57.6897C61.3732 54.0065 62.5257 49.5361 62.7786 44.4894C63.0738 39.288 63.0738 23.712 62.7786 18.5106V18.5106ZM56.0605 50.0703C54.9643 52.8257 52.842 54.9484 50.0732 56.059C45.9271 57.7037 36.0888 57.3242 31.507 57.3242C26.9252 57.3242 17.0729 57.6897 12.9408 56.059C10.1861 54.9625 8.06386 52.8397 6.95354 50.0703C5.30915 45.9233 5.68862 36.0828 5.68862 31.5C5.68862 26.9172 5.3232 17.0626 6.95354 12.9297C8.04981 10.1743 10.1721 8.0516 12.9408 6.94103C17.0869 5.29627 26.9252 5.67583 31.507 5.67583C36.0888 5.67583 45.9412 5.31033 50.0732 6.94103C52.8279 8.03754 54.9502 10.1603 56.0605 12.9297C57.7049 17.0767 57.3254 26.9172 57.3254 31.5C57.3254 36.0828 57.7049 45.9374 56.0605 50.0703Z" fill="white"/></svg>