<svg width="82" height="159" viewBox="0 0 82 159" fill="none" xmlns="http://www.w3.org/2000/svg"><path id="project-eclipse2" d="M0.756203 159C11.3613 159 21.8625 156.944 31.6603 152.948C41.458 148.953 50.3605 143.097 57.8595 135.715C65.3584 128.333 71.3068 119.569 75.3652 109.923C79.4236 100.278 81.5124 89.9401 81.5124 79.5C81.5124 69.0599 79.4236 58.722 75.3652 49.0767C71.3068 39.4313 65.3584 30.6673 57.8594 23.285C50.3605 15.9028 41.458 10.0468 31.6603 6.05157C21.8625 2.05633 11.3613 -9.12701e-07 0.756195 0L0.756203 39.75C6.05872 39.75 11.3093 40.7782 16.2082 42.7758C21.1071 44.7734 25.5584 47.7014 29.3078 51.3925C33.0573 55.0836 36.0315 59.4656 38.0607 64.2883C40.0899 69.111 41.1343 74.28 41.1343 79.5C41.1343 84.72 40.0899 89.889 38.0607 94.7117C36.0315 99.5344 33.0573 103.916 29.3078 107.607C25.5584 111.299 21.1071 114.227 16.2082 116.224C11.3093 118.222 6.05873 119.25 0.756203 119.25V159Z" fill="white"/></svg>