<svg width="34" height="34" viewBox="0 0 34 34" fill="none" xmlns="http://www.w3.org/2000/svg">
<g id="project-icon">
<g id="Group">
<g id="Group_2">
<path id="Vector" d="M33.4783 8.78305L33.477 8.78193L31.2824 8.46882C30.9739 8.42488 30.7595 8.1392 30.8034 7.83075C30.8245 7.68251 30.9037 7.54881 31.0235 7.45896L32.7972 6.12867C33.0465 5.94172 33.097 5.58813 32.91 5.33884L30.879 2.63085C30.6921 2.38156 30.3385 2.33107 30.0892 2.51802L28.316 3.84832C28.0678 4.03668 27.7139 3.98816 27.5256 3.73993C27.4341 3.61941 27.3949 3.46716 27.4168 3.31744L27.7304 1.12285C27.7746 0.81439 27.5605 0.52857 27.2521 0.484284L23.9026 0.00580259C23.5942 -0.0384842 23.3082 0.175616 23.264 0.484072L22.9503 2.67881C22.9063 2.98726 22.6207 3.20172 22.3122 3.15778C22.164 3.1367 22.0303 3.0575 21.9404 2.93776L20.6107 1.16403C20.4237 0.91474 20.0702 0.864247 19.8209 1.0512L18.1256 2.32339C17.3586 2.24186 16.5851 2.24186 15.8181 2.32339C10.7952 2.89749 6.85632 6.90319 6.3667 11.935C6.35147 12.0947 6.34583 12.2532 6.33793 12.4118L6.42932 14.4788C6.68997 16.5459 7.55352 17.3927 7.5 17.655L10.2882 21.3001L11.8616 22.7021C12.0366 22.5 10.4807 20.3075 10.2882 20.5L11.8616 22.7021C11.6694 22.8945 12.3686 24.5564 12.5228 24.7805L12.4537 24.564C12.1943 24.6208 12.635 24.5116 12.6355 24.7771L12.4537 24.564C12.4536 24.8308 12.4968 24.7255 12.7579 24.7805L12.6355 24.7771L12.5228 24C12.3685 24.224 12.4433 24.5846 12.6355 24.7771L12.7949 24.4485C12.9874 24.6411 12.3125 24.6547 12.5366 24.5L12.6355 24.7771L11.8616 22.7021C11.9152 22.9643 12.7689 26.4995 13.0366 26.5L12.9623 26.6045C13.2292 26.6047 12.9073 24.2611 12.9623 24L10.4623 21.0519L9.96231 20.5L7.5 17.655L10.2882 21.3001C10.5122 21.4544 12.5356 24.8774 12.728 24.6852L12.5228 24.908V26.5158C12.5254 27.3184 12.9554 28.0588 13.6512 28.4588V31.5933C13.6512 32.8396 14.6615 33.85 15.9078 33.85H18.1645C19.4108 33.85 20.4211 32.8396 20.4211 31.5933V28.4588C21.117 28.0588 21.5469 27.3184 21.5495 26.5158V24.2829C21.5648 23.3433 22.0563 22.4759 22.8544 21.98C23.3226 21.6762 23.7666 21.3367 24.1824 20.9645L23.4298 20.1239C23.0578 20.4573 22.6604 20.7612 22.2411 21.0327C21.1209 21.7358 20.4352 22.9603 20.4211 24.2829V26.5158C20.4211 27.139 19.916 27.6442 19.2928 27.6442H14.7795C14.1563 27.6442 13.6512 27.139 13.6512 26.5158V24.2361C13.6381 22.9385 12.9632 21.7377 11.8616 21.0519C7.39016 18.2422 6.04294 12.3398 8.85262 7.86826C10.5959 5.09392 13.6383 3.40531 16.9149 3.3936C16.9065 3.4137 16.8991 3.43422 16.8929 3.4551C16.8719 3.60319 16.9107 3.75361 17.0006 3.87314L18.3303 5.64631C18.4705 5.82776 18.484 6.07697 18.3642 6.27253C18.2488 6.46928 18.0258 6.57661 17.8 6.54389L15.6054 6.23022C15.297 6.186 15.0112 6.40017 14.9669 6.70856L14.4878 10.0598C14.4436 10.3681 14.6578 10.654 14.9662 10.6983L17.1614 11.0121C17.4699 11.056 17.6843 11.3417 17.6404 11.6501C17.6193 11.7984 17.5401 11.9321 17.4203 12.0219L15.6472 13.3516C15.3979 13.5386 15.3474 13.8922 15.5344 14.1415L17.5653 16.8495C17.7523 17.0988 18.1059 17.1492 18.3552 16.9623L20.1289 15.6326C20.3784 15.446 20.732 15.497 20.9186 15.7465C21.0079 15.8659 21.0463 16.0158 21.0254 16.1634L20.7122 18.358C20.668 18.6664 20.8821 18.9524 21.1905 18.9967L24.5418 19.4756C24.5682 19.479 24.5947 19.4807 24.6213 19.4807C24.9022 19.4811 25.1405 19.2747 25.1804 18.9967L25.4935 16.8021C25.5375 16.4936 25.8231 16.2792 26.1316 16.3231C26.2798 16.3442 26.4135 16.4234 26.5034 16.5431L27.8337 18.3163C28.0206 18.5656 28.3742 18.6161 28.6235 18.4291L31.3315 16.3981C31.5808 16.2112 31.6313 15.8576 31.4443 15.6083L30.1146 13.8351C29.975 13.6534 29.9616 13.4046 30.0807 13.2089C30.1936 13.0096 30.4187 12.9015 30.6449 12.9381L32.8395 13.2512C33.1479 13.2955 33.4338 13.0813 33.4781 12.773L33.9565 9.42169C34.0008 9.11323 33.7867 8.82734 33.4783 8.78305ZM14.7795 28.7725H19.2928V29.9008H14.7795V28.7725ZM14.7795 31.0291H19.2928V31.5933C19.2928 32.2165 18.7877 32.7216 18.1645 32.7216H15.9078C15.2846 32.7216 14.7795 32.2165 14.7795 31.5933V31.0291ZM32.4378 12.0529L30.8017 11.8194C29.8764 11.6872 29.0191 12.3303 28.887 13.2556C28.8235 13.6999 28.9392 14.1514 29.2085 14.5104L30.1998 15.8323L28.3945 17.1863L27.4027 15.865C26.8419 15.1171 25.781 14.9654 25.0332 15.5262C24.6741 15.7955 24.4367 16.1964 24.3731 16.6407L24.1446 18.2791L21.9111 17.9597L22.1447 16.3237C22.2772 15.3984 21.6344 14.5408 20.7091 14.4084C20.2645 14.3447 19.8129 14.4604 19.4536 14.7299L18.1318 15.7211L16.7778 13.9158L18.099 12.924C18.8469 12.3632 18.9986 11.3024 18.4378 10.5546C18.1686 10.1955 17.7677 9.95807 17.3233 9.89446L15.6872 9.66089L16.0066 7.42737L17.6426 7.66093C18.5679 7.79344 19.4255 7.15072 19.5579 6.22542C19.6216 5.78079 19.5059 5.32918 19.2364 4.96987L18.2418 3.64691L20.0471 2.29292L21.0389 3.61475C21.5997 4.36262 22.6605 4.51431 23.4083 3.95354C23.7674 3.68429 24.0048 3.28338 24.0684 2.83903L24.302 1.20296L26.5355 1.52171L26.302 3.15778C26.1698 4.08315 26.8128 4.9404 27.7382 5.07255C28.1825 5.13602 28.6339 5.02037 28.993 4.75098L30.3149 3.75974L31.6689 5.56507L30.347 6.55687C29.5992 7.11764 29.4475 8.17848 30.0082 8.92628C30.2775 9.28537 30.6784 9.52281 31.1227 9.58642L32.7588 9.81999L32.4378 12.0529Z" fill="white"/>
</g>
</g>
<g id="Group_3">
<g id="Group_4">
<path id="Vector_2" d="M24.259 5.37161C21.7664 5.37161 19.7457 7.3923 19.7457 9.88492C19.7457 12.3775 21.7664 14.3982 24.259 14.3982C26.7516 14.3982 28.7723 12.3775 28.7723 9.88492C28.7695 7.39343 26.7505 5.37436 24.259 5.37161ZM24.259 13.2699C22.3895 13.2699 20.8741 11.7544 20.8741 9.88492C20.8741 8.01542 22.3895 6.49994 24.259 6.49994C26.1285 6.49994 27.644 8.01542 27.644 9.88492C27.6418 11.7535 26.1276 13.2677 24.259 13.2699Z" fill="white"/>
</g>
</g>
<g id="Group_5">
<g id="Group_6">
<path id="Vector_3" d="M17.638 24.9684H16.5096V26.6609H17.638V24.9684Z" fill="white"/>
</g>
</g>
<g id="Group_7">
<g id="Group_8">
<path id="Vector_4" d="M14.6062 19.4277C11.1235 18.0672 9.40318 14.1411 10.7637 10.6584C11.2909 9.30897 12.2371 8.16421 13.4632 7.39244L12.8601 6.43787C9.16934 8.763 8.06224 13.6398 10.3874 17.3306C11.2878 18.76 12.6229 19.863 14.1966 20.4776C15.5895 21.0113 16.5093 22.3484 16.5097 23.84H17.638C17.6398 21.883 16.4337 20.1278 14.6062 19.4277Z" fill="white"/>
</g>
</g>
<g id="Group_9">
<g id="Group_10">
<path id="Vector_5" d="M5.08904 8.62419L0.57605 9.75232L0.849532 10.8464L5.36253 9.71823L5.08904 8.62419Z" fill="white"/>
</g>
</g>
<g id="Group_11">
<g id="Group_12">
<path id="Vector_6" d="M2.1687 3.07182L1.51324 3.98948L5.46207 6.81001L6.11753 5.89235L2.1687 3.07182Z" fill="white"/>
</g>
</g>
<g id="Group_13">
<g id="Group_14">
<path id="Vector_7" d="M7.44023 0.00470479L6.34711 0.284191L7.50097 4.79715L8.59409 4.51766L7.44023 0.00470479Z" fill="white"/>
</g>
</g>
</g>
</svg>
