<svg width="81" height="159" viewBox="0 0 81 159" fill="none" xmlns="http://www.w3.org/2000/svg"><path id="project-eclipse1" d="M80.7562 0C70.1511 0 59.6499 2.05634 49.8521 6.05157C40.0543 10.0468 31.1518 15.9028 23.6529 23.285C16.154 30.6673 10.2056 39.4313 6.1472 49.0767C2.08882 58.7221 -4.63562e-07 69.0599 0 79.5C4.63562e-07 89.9401 2.08882 100.278 6.1472 109.923C10.2056 119.569 16.154 128.333 23.6529 135.715C31.1518 143.097 40.0543 148.953 49.8521 152.948C59.6499 156.944 70.1511 159 80.7562 159L80.7562 119.25C75.4537 119.25 70.2031 118.222 65.3042 116.224C60.4053 114.227 55.954 111.299 52.2046 107.607C48.4551 103.916 45.4809 99.5344 43.4517 94.7117C41.4225 89.889 40.3781 84.72 40.3781 79.5C40.3781 74.28 41.4225 69.111 43.4517 64.2883C45.4809 59.4656 48.4551 55.0836 52.2046 51.3925C55.954 47.7014 60.4053 44.7734 65.3042 42.7758C70.2031 40.7782 75.4537 39.75 80.7562 39.75V0Z" fill="white"/></svg>