<svg width="34" height="34" viewBox="0 0 34 34" fill="none" xmlns="http://www.w3.org/2000/svg"><g id="resume-icon"><g id="Group 5"><path id="Vector" d="M27.6845 0H5.78537C3.72996 0 2.05786 1.47536 2.05786 3.28879C2.05786 27.7459 2.05885 26.6087 2.05784 26.6529C2.05326 26.8515 1.93002 33.8708 2.05784 33.9841C2.13534 34.0528 10.0444 33.6817 10.1542 33.7561C10.6451 34.0897 9.89045 33.9841 27.6845 33.9841C29.7399 33.9841 31.412 32.5088 31.412 30.6953V3.28879C31.412 1.47536 29.7399 0 27.6845 0ZM28.927 30.6953C28.927 31.2998 28.3696 31.7916 27.6845 31.7916H12.1532H10.3923C3.76575 31.7916 5.22912 31.7916 4.54287 31.7916V25.077V3.28879C4.54287 2.68434 5.10029 2.19252 5.78537 2.19252H27.6845C28.3696 2.19252 28.927 2.68434 28.927 3.28879V30.6953ZM24.9665 22.1308C24.9665 22.7362 24.4103 23.2271 23.724 23.2271H9.6682C8.98195 23.2271 8.4257 22.7362 8.4257 22.1308C8.4257 21.5254 8.98195 21.0345 9.6682 21.0345H23.724C24.4103 21.0345 24.9665 21.5254 24.9665 22.1308ZM24.9665 27.7491C24.9665 28.3546 24.4103 28.8454 23.724 28.8454H15.7254C15.0392 28.8454 14.4829 28.3546 14.4829 27.7491C14.4829 27.1437 15.0392 26.6529 15.7254 26.6529H23.724C24.4103 26.6529 24.9665 27.1437 24.9665 27.7491ZM16.684 11.516C18.9899 11.516 20.866 9.86081 20.866 7.82629C20.866 5.79176 18.99 4.13654 16.684 4.13654C14.378 4.13654 12.502 5.79176 12.502 7.82629C12.502 9.86081 14.3781 11.516 16.684 11.516ZM16.684 6.32907C17.6197 6.32907 18.381 7.00073 18.381 7.82629C18.381 8.65184 17.6197 9.32351 16.684 9.32351C15.7483 9.32351 14.9871 8.65184 14.9871 7.82629C14.9871 7.00073 15.7483 6.32907 16.684 6.32907ZM10.3924 16.8859V15.3828C10.3924 14.4349 11.0263 13.5726 12.0074 13.1861L13.978 12.4097C14.3084 12.2795 14.077 12.3145 18.8553 12.3145C19.2046 12.3145 19.1926 12.343 21.3325 13.186C22.3136 13.5726 22.9475 14.4348 22.9475 15.3828V16.8859C22.9475 17.4913 22.3912 17.9821 21.705 17.9821C21.0187 17.9821 20.4625 17.4913 20.4625 16.8859V15.3828C20.4625 15.2987 20.4062 15.2223 20.3193 15.188L18.5904 14.507H14.7494L13.0205 15.188C12.9335 15.2223 12.8773 15.2988 12.8773 15.3828V16.8859C12.8773 17.4913 12.321 17.9821 11.6348 17.9821C10.9485 17.9821 10.3924 17.4913 10.3924 16.8859Z" fill="white"/></g></g></svg>
